<svg width="139" height="96" viewBox="0 0 139 96" fill="none" xmlns="http://www.w3.org/2000/svg">
<path d="M24.8135 82.4274V83.3995C24.8135 86.3483 24.0358 88.4222 22.4804 89.6211C20.9412 90.8201 18.2193 91.4196 14.3146 91.4196H2.11438V74.4073H14.1687C18.0897 74.4073 20.844 75.0149 22.4318 76.2301C24.0196 77.429 24.8135 79.4948 24.8135 82.4274ZM13.2695 77.4209H5.80846V88.406H13.2695C15.4406 88.406 17.0851 88.2277 18.2031 87.8713C19.321 87.5148 20.0744 86.9721 20.4633 86.243C20.8683 85.5139 21.0708 84.4526 21.0708 83.0593V82.8162C21.0708 81.4229 20.8683 80.3616 20.4633 79.6325C20.0744 78.8872 19.321 78.3364 18.2031 77.9799C17.0851 77.6073 15.4406 77.4209 13.2695 77.4209ZM43.7951 83.6182V91.4196H40.4169V88.8434H40.3197C39.5582 90.7229 37.3385 91.6626 33.6606 91.6626C29.4157 91.6626 27.2932 90.3016 27.2932 87.5797V87.3852C27.3094 85.0359 28.8243 83.8127 31.8379 83.7155L40.4169 83.4238V83.3509C40.4169 82.2816 40.0605 81.5606 39.3476 81.1879C38.6509 80.7991 37.4843 80.6046 35.8479 80.6046C34.5032 80.6046 33.5067 80.7343 32.8586 80.9935C32.2106 81.2365 31.7407 81.674 31.4491 82.3059H27.9251C28.2977 80.9125 29.0835 79.8999 30.2825 79.268C31.4815 78.6199 33.3366 78.2958 35.8479 78.2958H36.5041C39.1127 78.2958 40.9759 78.7009 42.0938 79.511C43.228 80.3211 43.7951 81.6902 43.7951 83.6182ZM30.72 87.3366V87.4338C30.72 88.1467 31.0359 88.6571 31.6678 88.9649C32.3159 89.2728 33.3204 89.4267 34.6814 89.4267C36.3988 89.4267 37.7841 89.1189 38.8372 88.5032C39.8904 87.8875 40.4169 87.0126 40.4169 85.8784V85.5139L33.2961 85.7812C32.3888 85.8136 31.7326 85.9513 31.3275 86.1944C30.9225 86.4374 30.72 86.8182 30.72 87.3366ZM62.3541 78.5389L52.9974 95.5511H49.4249L51.9038 91.3953L44.7586 78.5389H48.4284L53.6536 88.0414H53.8237L58.8302 78.5389H62.3541Z" fill="white"/>
<path d="M75.2808 77.6397V91.4196H71.5867V77.6397H62.8132V74.4073H84.0542V77.6397H75.2808ZM98.8569 83.6182V91.4196H95.4788V88.8434H95.3816C94.6201 90.7229 92.4004 91.6626 88.7225 91.6626C84.4775 91.6626 82.3551 90.3016 82.3551 87.5797V87.3852C82.3713 85.0359 83.8862 83.8127 86.8998 83.7155L95.4788 83.4238V83.3509C95.4788 82.2816 95.1223 81.5606 94.4094 81.1879C93.7128 80.7991 92.5462 80.6046 90.9098 80.6046C89.565 80.6046 88.5686 80.7343 87.9205 80.9935C87.2724 81.2365 86.8026 81.674 86.5109 82.3059H82.987C83.3596 80.9125 84.1454 79.8999 85.3444 79.268C86.5433 78.6199 88.3985 78.2958 90.9098 78.2958H91.566C94.1745 78.2958 96.0378 78.7009 97.1557 79.511C98.2898 80.3211 98.8569 81.6902 98.8569 83.6182ZM85.7818 87.3366V87.4338C85.7818 88.1467 86.0978 88.6571 86.7296 88.9649C87.3777 89.2728 88.3823 89.4267 89.7432 89.4267C91.4607 89.4267 92.8459 89.1189 93.8991 88.5032C94.9522 87.8875 95.4788 87.0126 95.4788 85.8784V85.5139L88.358 85.7812C87.4506 85.8136 86.7945 85.9513 86.3894 86.1944C85.9843 86.4374 85.7818 86.8182 85.7818 87.3366ZM110.071 91.6626H109.537C106.88 91.6626 104.911 91.3953 103.631 90.8606C102.351 90.3097 101.533 89.3619 101.176 88.0171H104.798C105.105 88.487 105.648 88.811 106.426 88.9892C107.22 89.1513 108.378 89.2323 109.901 89.2323C111.748 89.2323 113.02 89.1189 113.717 88.892C114.413 88.649 114.778 88.2196 114.81 87.604V87.531C114.81 87.0612 114.584 86.7452 114.13 86.5832C113.676 86.405 112.809 86.2916 111.53 86.243L106.863 86.0729C105 86.0081 103.663 85.7002 102.853 85.1493C102.043 84.5985 101.638 83.7317 101.638 82.5489V82.2816C101.638 80.8234 102.278 79.7945 103.558 79.1951C104.838 78.5956 106.815 78.2958 109.488 78.2958H109.804C112.234 78.2958 114.049 78.5875 115.248 79.1708C116.447 79.754 117.297 80.6776 117.8 81.9413H114.13C113.595 81.115 112.04 80.7019 109.464 80.7019C107.795 80.7019 106.636 80.8153 105.988 81.0421C105.34 81.2527 105.016 81.6335 105.016 82.1844V82.2573C105.016 82.7271 105.235 83.0431 105.672 83.2051C106.159 83.3833 107.033 83.4967 108.297 83.5453L112.963 83.7155C114.859 83.7965 116.196 84.1043 116.973 84.639C117.767 85.1736 118.164 86.0405 118.164 87.2394V87.4824C118.164 89.054 117.516 90.1477 116.22 90.7634C114.924 91.3628 112.874 91.6626 110.071 91.6626ZM124.004 87.7741V91.4196H120.601V74.4073H124.004V84.4202H124.101L132.51 78.5389H137.249L129.423 84.0071L137.929 91.4196H133.142L126.847 85.8541H126.75L124.004 87.7741Z" fill="#FED36A"/>
<g opacity="0.3">
<path d="M95.8028 24.9819C98.6124 24.6747 100.641 22.1481 100.334 19.3386C100.027 16.5291 97.4999 14.5005 94.6904 14.8077C91.8808 15.1149 89.8523 17.6415 90.1595 20.4511C90.4667 23.2606 92.9933 25.2891 95.8028 24.9819Z" stroke="#EB996E" stroke-width="0.561983" stroke-linecap="round" stroke-linejoin="round"/>
<path d="M99.0881 21.9713C100.233 19.8516 99.4424 17.2052 97.3227 16.0605C95.2029 14.9158 92.5566 15.7063 91.4119 17.826C90.2672 19.9457 91.0576 22.5921 93.1773 23.7368C95.2971 24.8815 97.9434 24.091 99.0881 21.9713Z" stroke="#EB996E" stroke-width="0.561983" stroke-linecap="round" stroke-linejoin="round"/>
<path d="M97.1045 20.7706C97.1045 19.3038 95.024 19.2707 95.024 18.6584C95.024 18.3364 95.1932 18.2387 95.54 18.2387C95.8386 18.2387 96.0904 18.3681 96.378 18.6268L97.066 17.8356C96.7484 17.4798 96.3196 17.2421 95.8496 17.1613V16.3357H94.9428V17.1847C94.1653 17.3526 93.7044 17.9071 93.7044 18.7231C93.7044 20.1335 95.7863 20.223 95.7863 20.8683C95.7863 21.182 95.6239 21.3196 95.2207 21.3196C94.8822 21.3196 94.5437 21.1903 94.1075 20.8683L93.5117 21.804C93.9208 22.142 94.4196 22.3533 94.9469 22.4122V23.2227H95.851V22.3558C96.689 22.1563 97.1045 21.5481 97.1045 20.7706Z" stroke="#EB996E" stroke-width="0.561983" stroke-linecap="round" stroke-linejoin="round"/>
</g>
<g opacity="0.3">
<path d="M98.2961 49.4166C99.585 49.4166 100.63 48.3718 100.63 47.0829C100.63 45.794 99.585 44.7492 98.2961 44.7492C97.0072 44.7492 95.9623 45.794 95.9623 47.0829C95.9623 48.3718 97.0072 49.4166 98.2961 49.4166Z" stroke="#EB996E" stroke-width="0.561983" stroke-linecap="round" stroke-linejoin="round"/>
<path d="M99.7024 48.4901C100.479 47.7131 100.479 46.4532 99.7024 45.6762C98.9254 44.8992 97.6656 44.8992 96.8885 45.6762C96.1115 46.4533 96.1115 47.7131 96.8885 48.4901C97.6656 49.2671 98.9254 49.2672 99.7024 48.4901Z" stroke="#EB996E" stroke-width="0.561983" stroke-linecap="round" stroke-linejoin="round"/>
<path d="M99.1423 47.482C99.1423 46.8132 98.1928 46.794 98.1928 46.5188C98.1928 46.3715 98.2699 46.3275 98.4282 46.3275C98.574 46.3348 98.7114 46.3979 98.8121 46.5036L99.1244 46.1431C98.9801 45.9823 98.7866 45.8738 98.574 45.8349V45.4592H98.1612V45.8459C97.994 45.8701 97.8419 45.9562 97.7351 46.0872C97.6283 46.2182 97.5746 46.3845 97.5846 46.5532C97.5846 47.1971 98.5341 47.2412 98.5341 47.5315C98.5341 47.676 98.4598 47.7379 98.2768 47.7379C98.0893 47.7277 97.9105 47.655 97.769 47.5315L97.4938 47.9595C97.6806 48.1132 97.9083 48.2089 98.1488 48.2347V48.6048H98.5616V48.2044C98.7299 48.1757 98.8819 48.0864 98.9889 47.9533C99.0959 47.8202 99.1505 47.6525 99.1423 47.482Z" stroke="#EB996E" stroke-width="0.561983" stroke-linecap="round" stroke-linejoin="round"/>
</g>
<g opacity="0.3">
<path d="M56.3714 9.99991C58.369 9.6803 59.7293 7.80184 59.4097 5.80424C59.09 3.80664 57.2116 2.44636 55.214 2.76597C53.2164 3.08557 51.8561 4.96404 52.1757 6.96164C52.4953 8.95923 54.3738 10.3195 56.3714 9.99991Z" stroke="#EB996E" stroke-width="0.561983" stroke-linecap="round" stroke-linejoin="round"/>
<path d="M58.4292 8.05834C59.3529 6.60226 58.9214 4.67308 57.4653 3.74939C56.0092 2.8257 54.08 3.25727 53.1564 4.71334C52.2327 6.16941 52.6642 8.09859 54.1203 9.02229C55.5764 9.94598 57.5056 9.51441 58.4292 8.05834Z" stroke="#EB996E" stroke-width="0.561983" stroke-linecap="round" stroke-linejoin="round"/>
<path d="M57.12 7.01176C57.12 5.96186 55.6311 5.93847 55.6311 5.49814C55.6311 5.26834 55.7522 5.19817 56.0013 5.19817C56.2294 5.20851 56.4446 5.30721 56.6012 5.47337L57.0911 4.90783C56.8637 4.65267 56.5568 4.48196 56.2201 4.42347V3.83728H55.5733V4.44686C55.3154 4.48827 55.0819 4.62362 54.9178 4.82685C54.7537 5.03008 54.6706 5.28683 54.6844 5.54768C54.6844 6.55768 56.1733 6.62097 56.1733 7.08332C56.1733 7.30761 56.0591 7.40668 55.7701 7.40668C55.5279 7.40668 55.2844 7.31449 54.9734 7.08332L54.5468 7.74931C54.8388 7.99226 55.1958 8.14395 55.5733 8.18551V8.76757H56.2201V8.14698C56.482 8.09867 56.7176 7.95701 56.8831 7.74826C57.0485 7.53951 57.1327 7.27784 57.12 7.01176Z" stroke="#EB996E" stroke-width="0.561983" stroke-linecap="round" stroke-linejoin="round"/>
</g>
<g opacity="0.3">
<path d="M27.151 50.0309C28.4233 49.8244 29.2872 48.6257 29.0807 47.3534C28.8742 46.0812 27.6754 45.2173 26.4032 45.4238C25.131 45.6303 24.267 46.8291 24.4735 48.1013C24.68 49.3735 25.8788 50.2375 27.151 50.0309Z" stroke="#EB996E" stroke-width="0.561983" stroke-linecap="round" stroke-linejoin="round"/>
<path d="M28.7642 47.7283C28.7642 47.3348 28.6476 46.9501 28.4289 46.6228C28.2103 46.2956 27.8995 46.0406 27.536 45.89C27.1724 45.7394 26.7723 45.7 26.3863 45.7768C26.0004 45.8536 25.6458 46.0431 25.3676 46.3213C25.0893 46.5996 24.8998 46.9541 24.823 47.3401C24.7462 47.7261 24.7857 48.1261 24.9363 48.4897C25.0868 48.8533 25.3419 49.164 25.6691 49.3827C25.9963 49.6013 26.381 49.718 26.7745 49.718C27.3022 49.718 27.8083 49.5084 28.1815 49.1352C28.5546 48.7621 28.7642 48.256 28.7642 47.7283V47.7283Z" stroke="#EB996E" stroke-width="0.561983" stroke-linecap="round" stroke-linejoin="round"/>
<path d="M27.6208 48.1287C27.6208 47.4586 26.6727 47.4407 26.6727 47.1655C26.6727 47.0182 26.7498 46.9742 26.908 46.9742C27.0535 46.9813 27.1906 47.0444 27.2906 47.1503L27.6029 46.7898C27.459 46.6287 27.2652 46.5206 27.0525 46.483V46.1059H26.6397V46.494C26.4751 46.52 26.3259 46.6061 26.2212 46.7358C26.1165 46.8654 26.0636 47.0293 26.0728 47.1957C26.0728 47.8383 27.0222 47.8837 27.0222 48.1741C27.0222 48.3117 26.9493 48.3791 26.7649 48.3791C26.5776 48.3692 26.3989 48.2971 26.2572 48.1741L25.982 48.6007C26.1691 48.7537 26.3966 48.8493 26.637 48.8759V49.2446H27.0498V48.8511C27.2166 48.8208 27.3666 48.7308 27.4718 48.5978C27.5769 48.4648 27.6299 48.298 27.6208 48.1287V48.1287Z" stroke="#EB996E" stroke-width="0.561983" stroke-linecap="round" stroke-linejoin="round"/>
</g>
<g opacity="0.3">
<path d="M85.2869 60.4876C86.5615 60.2959 87.4394 59.1074 87.2478 57.8328C87.0562 56.5582 85.8676 55.6803 84.593 55.872C83.3185 56.0636 82.4406 57.2522 82.6322 58.5267C82.8238 59.8013 84.0124 60.6792 85.2869 60.4876Z" stroke="#EB996E" stroke-width="0.561983" stroke-linecap="round" stroke-linejoin="round"/>
<path d="M86.9274 58.1833C86.9268 57.7899 86.8097 57.4055 86.5907 57.0786C86.3718 56.7518 86.0608 56.4972 85.6972 56.347C85.3336 56.1968 84.9336 56.1578 84.5478 56.2349C84.162 56.312 83.8077 56.5017 83.5297 56.7801C83.2517 57.0584 83.0625 57.413 82.986 57.7989C82.9094 58.1848 82.949 58.5847 83.0997 58.9481C83.2503 59.3115 83.5054 59.6221 83.8325 59.8406C84.1597 60.0592 84.5442 60.1758 84.9377 60.1758C85.1992 60.176 85.4583 60.1245 85.6999 60.0244C85.9416 59.9243 86.1612 59.7775 86.346 59.5924C86.5308 59.4073 86.6773 59.1876 86.7771 58.9458C86.8769 58.704 86.9279 58.4449 86.9274 58.1833V58.1833Z" stroke="#EB996E" stroke-width="0.561983" stroke-linecap="round" stroke-linejoin="round"/>
<path d="M85.7839 58.5824C85.7839 57.9136 84.8358 57.8943 84.8358 57.6191C84.8358 57.4719 84.9129 57.4279 85.0711 57.4279C85.2166 57.435 85.3537 57.4981 85.4537 57.604L85.766 57.2435C85.6224 57.0819 85.4285 56.9733 85.2156 56.9353V56.5596H84.8028V56.9476C84.6384 56.9736 84.4895 57.0596 84.3848 57.1889C84.2801 57.3183 84.2271 57.4819 84.2359 57.648C84.2359 58.292 85.1854 58.336 85.1854 58.6278C85.1854 58.7654 85.1124 58.8328 84.928 58.8328C84.7407 58.8229 84.562 58.7508 84.4203 58.6278L84.1451 59.0543C84.3323 59.2074 84.5597 59.303 84.8001 59.3295V59.6983H85.2129V59.3034C85.3793 59.2729 85.529 59.183 85.6341 59.0503C85.7391 58.9177 85.7924 58.7514 85.7839 58.5824Z" stroke="#EB996E" stroke-width="0.561983" stroke-linecap="round" stroke-linejoin="round"/>
</g>
<g opacity="0.3">
<path d="M38.7817 23.5791C40.0706 23.5791 41.1155 22.5342 41.1155 21.2453C41.1155 19.9564 40.0706 18.9116 38.7817 18.9116C37.4928 18.9116 36.448 19.9564 36.448 21.2453C36.448 22.5342 37.4928 23.5791 38.7817 23.5791Z" stroke="#EB996E" stroke-width="0.561983" stroke-linecap="round" stroke-linejoin="round"/>
<path d="M40.6527 21.9207C41.0268 20.8874 40.4924 19.7465 39.4591 19.3725C38.4258 18.9985 37.2849 19.5329 36.9109 20.5662C36.5369 21.5994 37.0713 22.7403 38.1046 23.1143C39.1378 23.4884 40.2787 22.954 40.6527 21.9207Z" stroke="#EB996E" stroke-width="0.561983" stroke-linecap="round" stroke-linejoin="round"/>
<path d="M39.6294 21.6471C39.6294 20.977 38.6799 20.9591 38.6799 20.6839C38.6799 20.5367 38.757 20.4926 38.9152 20.4926C39.061 20.4997 39.1983 20.5634 39.2978 20.6701L39.6101 20.3096C39.4665 20.148 39.2726 20.0394 39.0597 20.0014V19.6244H38.6469V20.0124C38.4824 20.0387 38.3335 20.1249 38.2288 20.2545C38.1241 20.3841 38.0711 20.5478 38.08 20.7142C38.08 21.3581 39.0294 21.4022 39.0294 21.6925C39.0294 21.8301 38.9565 21.8989 38.7721 21.8989C38.5847 21.8883 38.4061 21.8157 38.2644 21.6925L37.9892 22.1191C38.1763 22.2721 38.4038 22.3677 38.6442 22.3943V22.7644H39.057V22.3681C39.2237 22.338 39.3737 22.2481 39.479 22.1155C39.5843 21.9828 39.6378 21.8163 39.6294 21.6471V21.6471Z" stroke="#EB996E" stroke-width="0.561983" stroke-linecap="round" stroke-linejoin="round"/>
</g>
<g opacity="0.3">
<path d="M37.3358 54.61C40.1452 54.3018 42.1729 51.7745 41.8647 48.9651C41.5565 46.1556 39.0292 44.128 36.2198 44.4362C33.4104 44.7443 31.3827 47.2717 31.6909 50.0811C31.9991 52.8905 34.5264 54.9182 37.3358 54.61Z" stroke="#EB996E" stroke-width="0.561983" stroke-linecap="round" stroke-linejoin="round"/>
<path d="M40.6923 51.4494C41.7582 49.2889 40.8709 46.6735 38.7104 45.6076C36.55 44.5417 33.9345 45.429 32.8687 47.5895C31.8028 49.7499 32.6901 52.3653 34.8505 53.4312C37.011 54.4971 39.6264 53.6098 40.6923 51.4494Z" stroke="#EB996E" stroke-width="0.561983" stroke-linecap="round" stroke-linejoin="round"/>
<path d="M38.6372 50.3978C38.6372 48.9296 36.5567 48.8979 36.5567 48.2842C36.5567 47.9622 36.7259 47.8645 37.0727 47.8645C37.3713 47.8645 37.6231 47.9939 37.9121 48.2526L38.6001 47.4614C38.2815 47.1061 37.8525 46.8685 37.3823 46.7871V45.9615H36.4755V46.8119C35.6994 46.9797 35.2371 47.5343 35.2371 48.3489C35.2371 49.7607 37.3176 49.8488 37.3176 50.4941C37.3176 50.8092 37.1566 50.9454 36.7535 50.9454C36.415 50.9454 36.0751 50.8161 35.6403 50.4941L35.0431 51.4298C35.4523 51.7676 35.951 51.9789 36.4783 52.038V52.8485H37.3823V51.9816C38.2217 51.7821 38.6372 51.1739 38.6372 50.3978Z" stroke="#EB996E" stroke-width="0.561983" stroke-linecap="round" stroke-linejoin="round"/>
</g>
<path d="M33.8473 24.9069C33.8803 25.5633 33.3272 26.9283 33.3272 26.9297C33.3272 26.9311 32.5373 26.2926 32.4933 26.2417C31.9759 25.6995 31.2934 24.3496 31.6925 23.6121C31.7622 23.4914 31.8565 23.3867 31.9694 23.3048C32.0822 23.2229 32.211 23.1657 32.3474 23.1369C32.4839 23.1081 32.6248 23.1083 32.7611 23.1376C32.8974 23.1668 33.0261 23.2244 33.1387 23.3066C33.6271 23.6437 33.8184 24.3483 33.8473 24.9069Z" fill="#BC9434"/>
<path d="M47.2388 37.9461L47.3241 37.9971L47.3351 38.5901L46.9801 38.3713C46.6374 38.1581 46.2756 37.9241 45.9054 37.6833C45.6193 37.995 45.3152 38.2895 44.9945 38.5654C45.2779 39.1323 45.3976 40.3542 45.4073 40.511C45.805 40.5014 46.1916 40.4877 46.5563 40.4698C46.8067 40.4574 47.0475 40.4436 47.28 40.4285L47.0847 40.9459C46.9182 40.9459 46.7503 40.9583 46.5755 40.9624C46.1723 40.9734 45.7417 40.9789 45.2986 40.9789C45.2738 41.1371 45.0619 42.4375 44.722 42.9535C44.4138 43.42 43.8964 43.9291 43.2992 43.9662C43.1614 43.9793 43.0224 43.9634 42.8911 43.9195C42.7598 43.8756 42.6391 43.8047 42.5369 43.7114C42.4346 43.6181 42.353 43.5044 42.2973 43.3777C42.2417 43.2509 42.2131 43.1139 42.2135 42.9755C42.2452 42.1361 43.5194 41.3243 44.2404 41.1179C44.2831 41.1069 44.7592 41.0284 45.0591 40.9803C44.8789 40.9803 44.7028 40.9803 44.517 40.9803C44.1482 40.9803 43.7808 40.961 43.3845 40.9472L42.8066 40.906C42.614 40.8963 42.4103 40.8619 42.2108 40.8399C41.7471 40.7808 41.282 40.7023 40.8141 40.6046C40.8141 40.9266 40.7783 42.0715 40.5389 42.582C40.2995 43.0925 39.866 43.6731 39.2867 43.7997C39.1514 43.8339 39.0104 43.8393 38.8729 43.8153C38.7355 43.7914 38.6045 43.7388 38.4887 43.6609C38.3729 43.583 38.2749 43.4816 38.2009 43.3633C38.1269 43.2449 38.0786 43.1123 38.0593 42.9741C37.963 42.1403 39.0996 41.1413 39.7821 40.8317C39.8234 40.8124 40.3325 40.6459 40.6229 40.5565C40.3476 40.4973 40.0614 40.4409 39.7793 40.3721C38.9647 40.1739 38.1474 39.9483 37.33 39.7267L36.5828 39.5354C36.5828 39.651 36.576 41.0133 36.3076 41.5843C36.0737 42.0921 35.6334 42.6755 35.0555 42.8021C34.9202 42.8366 34.7791 42.842 34.6415 42.8182C34.5039 42.7944 34.3729 42.7418 34.2571 42.6639C34.1412 42.5859 34.0431 42.4844 33.9692 42.366C33.8953 42.2475 33.8472 42.1148 33.8281 41.9765C33.7317 41.1426 34.8683 40.1437 35.5495 39.834C35.6017 39.8107 36.342 39.5712 36.5333 39.5203C35.9829 39.3745 35.4325 39.2355 34.8821 39.1213C34.1419 38.9625 33.3923 38.8517 32.6378 38.7896C32.6378 38.8433 32.6378 40.2647 32.3626 40.8537C32.1273 41.3614 31.6883 41.9435 31.1104 42.0701C30.975 42.1047 30.8338 42.1104 30.6961 42.0867C30.5583 42.0629 30.4271 42.0104 30.3111 41.9324C30.1951 41.8545 30.0969 41.7529 30.0229 41.6343C29.9488 41.5158 29.9007 41.3829 29.8816 41.2445C29.7867 40.412 30.9219 39.4116 31.6044 39.102C31.6581 39.0786 32.4548 38.8268 32.602 38.7841C32.558 38.7841 32.5139 38.7731 32.4644 38.7704C31.7063 38.7293 30.9461 38.7555 30.1926 38.8488C29.7798 38.8956 29.3807 38.963 28.9968 39.0373C29.0244 39.3029 29.1344 40.5138 28.9501 41.0683C28.7725 41.5995 28.3996 42.2256 27.8382 42.4155C27.709 42.4618 27.5716 42.4808 27.4346 42.4713C27.2977 42.4618 27.1642 42.4239 27.0426 42.3602C26.921 42.2964 26.814 42.2081 26.7283 42.1009C26.6426 41.9936 26.5801 41.8697 26.5448 41.7371C26.3576 40.9115 27.3704 39.801 28.0212 39.4185C28.0556 39.3978 28.434 39.2258 28.7092 39.1034C28.5359 39.1405 28.3584 39.1749 28.1932 39.2121C27.5754 39.3497 27.0167 39.5203 26.5241 39.6731C26.2489 39.7625 25.9944 39.8478 25.7604 39.9304C25.6517 40.2056 25.1976 41.3064 24.7862 41.7013C24.3748 42.0962 23.7638 42.4746 23.179 42.3893C22.5942 42.304 22.1773 41.7646 22.33 41.1798C22.5405 40.3679 23.9606 39.8451 24.7091 39.8038C24.7738 39.8038 25.7907 39.8588 25.7852 39.8726V39.8891C26.0095 39.8052 26.2489 39.7171 26.5145 39.6276C27.0044 39.4639 27.5603 39.2836 28.1781 39.1281C28.8418 38.951 29.5154 38.8131 30.1954 38.7153C30.956 38.6043 31.725 38.561 32.4933 38.586H32.5208C32.2883 38.5034 31.6498 38.2502 31.603 38.2255C30.9425 37.8718 29.8734 36.8027 30.022 35.9771C30.0505 35.8406 30.1074 35.7118 30.1891 35.5988C30.2708 35.4859 30.3753 35.3914 30.4959 35.3216C30.6165 35.2517 30.7505 35.2081 30.8891 35.1935C31.0277 35.1788 31.1678 35.1936 31.3003 35.2368C31.87 35.4005 32.2635 36.0087 32.4713 36.5316C32.6983 37.1205 32.6172 38.4855 32.6089 38.5956C33.3901 38.6407 34.1674 38.7377 34.9358 38.886C35.383 38.9699 35.8329 39.069 36.2815 39.1736C36.0834 39.0951 35.9072 39.0236 35.8838 39.0112C35.222 38.6575 34.1542 37.5884 34.3028 36.7628C34.3313 36.6263 34.3883 36.4974 34.4699 36.3844C34.5516 36.2715 34.6561 36.1769 34.7766 36.107C34.8972 36.037 35.0311 35.9932 35.1697 35.9784C35.3083 35.9636 35.4485 35.9782 35.5811 36.0211C36.1508 36.1848 36.5512 36.7944 36.7521 37.3173C36.953 37.8402 36.9103 39.0126 36.8897 39.3208C37.0617 39.3621 37.2337 39.402 37.4043 39.4446C38.2299 39.6483 39.0556 39.8574 39.8592 40.0336C40.144 40.0969 40.4288 40.1492 40.7123 40.2014C40.5362 40.1313 40.3889 40.0721 40.3683 40.0638C39.7064 39.7116 38.6372 38.641 38.7872 37.8154C38.8158 37.679 38.8727 37.5501 38.9544 37.4372C39.036 37.3242 39.1406 37.2298 39.2612 37.1599C39.3818 37.0901 39.5157 37.0464 39.6543 37.0318C39.7929 37.0172 39.933 37.032 40.0656 37.0751C40.6339 37.2389 41.0357 37.8484 41.2366 38.37C41.4375 38.8915 41.3989 39.9524 41.3742 40.3184C41.6659 40.3638 41.959 40.4092 42.2438 40.4395C42.4392 40.456 42.625 40.4863 42.8217 40.4918L43.401 40.5207C43.7698 40.5207 44.1496 40.5317 44.5101 40.5276C44.7592 40.5276 44.9986 40.5207 45.238 40.5152C44.9532 40.456 44.3973 40.328 44.3519 40.3115C43.7389 40.0696 43.198 39.6751 42.7805 39.1653C42.7113 39.1413 42.6445 39.1109 42.5809 39.0745C42.4576 39.0093 42.3495 38.9189 42.2635 38.8092C42.1775 38.6994 42.1156 38.5728 42.0818 38.4375C42.0481 38.3022 42.0432 38.1613 42.0676 38.024C42.0919 37.8867 42.1449 37.7561 42.2232 37.6407C42.7117 36.9595 44.2239 36.9815 44.9367 37.2113C44.9793 37.2251 45.4197 37.4219 45.6949 37.5512C45.5449 37.4508 45.3976 37.3545 45.2435 37.2485C44.9381 37.0421 44.6395 36.8274 44.3175 36.5976L43.8675 36.233C43.712 36.1188 43.562 35.9784 43.4065 35.8491C43.0543 35.545 42.7103 35.2175 42.3718 34.8859C42.1915 35.1528 41.5338 36.0913 41.0549 36.3871C40.5761 36.683 39.8922 36.9251 39.3404 36.7119C38.7886 36.4986 38.4941 35.8862 38.768 35.3496C39.1478 34.601 40.6476 34.3946 41.3824 34.5116C41.4292 34.5198 41.9493 34.6643 42.2342 34.7483C42.0333 34.5446 41.831 34.3423 41.6329 34.1291C41.0632 33.5154 40.5045 32.8755 39.9458 32.2398C39.7738 32.0458 39.6005 31.8531 39.4285 31.6605C39.3652 31.7568 38.6028 32.8893 38.0717 33.2209C37.597 33.5153 36.909 33.7575 36.3572 33.5442C36.2255 33.4985 36.105 33.4256 36.0034 33.3302C35.9018 33.2348 35.8214 33.1192 35.7674 32.9907C35.7134 32.8622 35.6871 32.7238 35.69 32.5845C35.693 32.4452 35.7253 32.308 35.7848 32.182C36.1659 31.4348 37.6644 31.227 38.3992 31.3454C38.4556 31.355 39.2055 31.5628 39.3927 31.6206C39.0129 31.1954 38.6304 30.7757 38.2368 30.3821C37.7071 29.8419 37.1431 29.3363 36.5484 28.8685C36.5196 28.9139 35.7338 30.0987 35.1862 30.4386C34.7101 30.733 34.0221 30.9766 33.4703 30.7633C33.3386 30.7174 33.218 30.6444 33.1164 30.5488C33.0149 30.4533 32.9345 30.3375 32.8807 30.2088C32.8268 30.0802 32.8006 29.9417 32.8038 29.8023C32.807 29.6629 32.8395 29.5257 32.8992 29.3997C33.279 28.6525 34.7775 28.4461 35.5137 28.563C35.5728 28.5727 36.3792 28.7983 36.5223 28.8493C36.4879 28.8217 36.4549 28.7901 36.4191 28.7639C35.8094 28.312 35.1611 27.9146 34.4817 27.5764C34.1088 27.3865 33.7414 27.2242 33.3808 27.0742C33.257 27.3109 32.6791 28.3814 32.2209 28.7419C31.7626 29.1024 31.12 29.4038 30.5504 29.2524C30.4145 29.2212 30.2868 29.1618 30.1754 29.0781C30.0641 28.9943 29.9716 28.888 29.904 28.7661C29.8364 28.6443 29.7951 28.5096 29.783 28.3707C29.7708 28.2319 29.788 28.0921 29.8335 27.9603C30.1279 27.176 31.5948 26.8059 32.3433 26.8416C32.3846 26.8416 32.796 26.9091 33.0946 26.9614C32.9309 26.8967 32.763 26.8238 32.6048 26.7673C32.0103 26.5444 31.453 26.3765 30.9535 26.2307C30.6783 26.1509 30.4141 26.0848 30.1733 26.0243C29.9312 26.1922 28.9473 26.8582 28.3845 26.9627C27.8217 27.0673 27.1048 27.0453 26.6672 26.6476C26.2297 26.2499 26.176 25.5743 26.6259 25.1711C27.2493 24.6097 28.7216 24.9579 29.3697 25.3335C29.4248 25.3665 30.2421 25.9761 30.2298 25.9858L30.2146 25.9954C30.4472 26.0491 30.6962 26.1082 30.9673 26.1784C31.4668 26.316 32.0282 26.4687 32.6295 26.6806C33.2798 26.9009 33.9166 27.1592 34.5367 27.454C35.2322 27.7816 35.8976 28.1697 36.5251 28.614L36.5457 28.6318C36.3985 28.4351 36.0063 27.8709 35.9802 27.8241C35.6238 27.165 35.3224 25.683 35.9031 25.0721C36.0022 24.9742 36.1207 24.8983 36.251 24.8492C36.3814 24.8002 36.5206 24.7791 36.6596 24.7874C36.7986 24.7957 36.9343 24.8332 37.0579 24.8974C37.1814 24.9617 37.2901 25.0512 37.3768 25.1601C37.7621 25.6101 37.7593 26.3394 37.6396 26.8857C37.502 27.5021 36.6764 28.5961 36.6172 28.6828C37.2503 29.1525 37.8511 29.6641 38.4157 30.2143C38.7432 30.5321 39.0638 30.861 39.3789 31.1954C39.2578 31.022 39.1491 30.8651 39.1367 30.8417C38.7804 30.1826 38.479 28.6993 39.0597 28.0897C39.1587 27.9918 39.2773 27.9159 39.4076 27.8668C39.538 27.8178 39.6772 27.7968 39.8162 27.8051C39.9552 27.8134 40.0909 27.8508 40.2145 27.9151C40.338 27.9793 40.4467 28.0688 40.5334 28.1778C40.9187 28.6277 40.9159 29.357 40.7962 29.9033C40.6765 30.4496 39.9926 31.4045 39.8082 31.6536C39.9293 31.7829 40.0504 31.9109 40.1701 32.0403C40.7439 32.665 41.3136 33.2897 41.8915 33.8855C42.0952 34.096 42.3043 34.2983 42.5108 34.4965C42.4034 34.341 42.314 34.2102 42.3016 34.1882C41.9452 33.5291 41.6439 32.0471 42.2245 31.4362C42.6373 31 43.3254 31.0839 43.6983 31.5242C44.0712 31.9646 44.0808 32.7049 43.9611 33.2512C43.8414 33.7974 43.2235 34.6588 43.0061 34.9547C43.2249 35.1542 43.4437 35.3537 43.6652 35.5367C43.818 35.6578 43.9583 35.7858 44.1193 35.8986L44.5858 36.2413C44.8913 36.449 45.2036 36.6651 45.5064 36.8591C45.7155 36.9967 45.9192 37.1233 46.1214 37.2513C45.9164 37.0448 45.5229 36.6307 45.494 36.5921C45.0413 35.9949 44.5197 34.5763 45.0014 33.8883C45.0845 33.7764 45.1902 33.6833 45.3116 33.615C45.433 33.5467 45.5675 33.5047 45.7062 33.4917C45.8449 33.4788 45.9848 33.4951 46.1168 33.5397C46.2488 33.5843 46.3699 33.6562 46.4723 33.7507C46.9195 34.1373 47.0227 34.8583 46.9925 35.417C46.9526 36.0321 46.3375 37.1935 46.259 37.3434C46.5948 37.5581 46.9237 37.7604 47.2388 37.9461Z" fill="#BC9434"/>
<path d="M28.8799 38.9506C28.8799 38.9658 27.8699 38.8543 27.8066 38.8406C27.0759 38.6741 25.7618 37.9241 25.6875 37.0889C25.6792 36.9497 25.7004 36.8104 25.7495 36.6799C25.7986 36.5494 25.8746 36.4308 25.9726 36.3316C26.0706 36.2325 26.1883 36.1551 26.3182 36.1044C26.4481 36.0537 26.5872 36.031 26.7264 36.0376C27.3181 36.0445 27.8658 36.5261 28.1974 36.9774C28.5868 37.5058 28.8799 38.9493 28.8799 38.9506Z" fill="#BC9434"/>
<path d="M101.977 24.9069C101.944 25.5633 102.496 26.9283 102.496 26.9297C102.496 26.9311 103.286 26.2926 103.331 26.2417C103.848 25.6995 104.531 24.3496 104.132 23.6121C104.062 23.4914 103.968 23.3867 103.855 23.3048C103.742 23.2229 103.613 23.1657 103.477 23.1369C103.34 23.1081 103.199 23.1083 103.063 23.1376C102.927 23.1668 102.798 23.2244 102.686 23.3066C102.196 23.6437 102.004 24.3483 101.977 24.9069Z" fill="#BC9434"/>
<path d="M88.5855 37.9461L88.4988 37.997L88.4892 38.5901L88.8442 38.3713C89.1868 38.158 89.5487 37.9241 89.9175 37.6833C90.2036 37.995 90.5077 38.2895 90.8284 38.5653C90.545 39.1323 90.4266 40.3542 90.4156 40.511C90.018 40.5014 89.6327 40.4876 89.268 40.4698C89.0162 40.4574 88.7754 40.4436 88.5442 40.4285L88.741 40.95C88.9061 40.95 89.074 40.9624 89.2488 40.9665C89.6519 40.9775 90.084 40.983 90.5271 40.983C90.5519 41.1413 90.7638 42.4416 91.1036 42.9576C91.4119 43.4241 91.9292 43.9332 92.5251 43.9704C92.6638 43.9841 92.8038 43.9684 92.9361 43.9244C93.0684 43.8804 93.1899 43.809 93.2927 43.7149C93.3955 43.6207 93.4774 43.506 93.5329 43.3781C93.5884 43.2503 93.6163 43.1121 93.6149 42.9727C93.5832 42.1334 92.309 41.3215 91.588 41.1151C91.5453 41.1041 91.0692 41.0257 90.7624 40.9775C90.944 40.9775 91.1188 40.9775 91.3128 40.9775C91.6816 40.9775 92.049 40.9582 92.4439 40.9445L93.0218 40.9032C93.2158 40.8936 93.4181 40.8592 93.619 40.8372C94.0813 40.778 94.5478 40.6996 95.0157 40.6019C95.0157 40.9238 95.0501 42.0687 95.2909 42.5792C95.5317 43.0897 95.9651 43.6704 96.5431 43.797C96.6784 43.8312 96.8195 43.8365 96.9571 43.8126C97.0947 43.7887 97.2257 43.7361 97.3416 43.6582C97.4575 43.5803 97.5557 43.4789 97.6298 43.3606C97.7039 43.2422 97.7523 43.1096 97.7718 42.9714C97.8668 42.1375 96.7316 41.1385 96.0491 40.8289C96.0064 40.8096 95.4987 40.6431 95.2083 40.5537C95.4835 40.4945 95.7684 40.4381 96.0518 40.3693C96.865 40.1712 97.6838 39.9455 98.5011 39.724L99.2359 39.5354C99.2359 39.651 99.2428 41.0133 99.5111 41.5843C99.7451 42.0921 100.184 42.6755 100.762 42.8021C101.34 42.9287 101.922 42.5806 101.991 41.9765C102.086 41.1426 100.95 40.1436 100.268 39.834C100.217 39.8106 99.4767 39.5712 99.2855 39.5203C99.8359 39.3744 100.386 39.2355 100.937 39.1213C101.676 38.9625 102.426 38.8517 103.18 38.7896C103.18 38.8433 103.18 40.2647 103.455 40.8537C103.689 41.3614 104.129 41.9435 104.707 42.0701C104.842 42.1045 104.983 42.11 105.121 42.0862C105.259 42.0623 105.39 42.0097 105.505 41.9318C105.621 41.8539 105.719 41.7524 105.793 41.6339C105.867 41.5155 105.915 41.3828 105.934 41.2445C106.031 40.412 104.896 39.4116 104.213 39.102C104.159 39.0786 103.363 38.8268 103.214 38.7841C103.258 38.7841 103.303 38.7731 103.352 38.7704C104.109 38.7293 104.869 38.7555 105.622 38.8488C106.035 38.8956 106.435 38.963 106.818 39.0373C106.792 39.3029 106.68 40.5138 106.866 41.0683C107.043 41.5995 107.416 42.2256 107.976 42.4155C108.106 42.4634 108.245 42.4836 108.383 42.4749C108.521 42.4662 108.656 42.4287 108.779 42.3648C108.902 42.3009 109.01 42.2121 109.096 42.104C109.183 41.9959 109.246 41.8709 109.281 41.7371C109.468 40.9115 108.455 39.801 107.804 39.4185C107.77 39.3978 107.392 39.2258 107.116 39.1034C107.288 39.1405 107.467 39.1749 107.632 39.2121C108.25 39.3497 108.808 39.5203 109.3 39.673C109.575 39.7625 109.831 39.8478 110.065 39.9304C110.174 40.2056 110.628 41.3064 111.039 41.7013C111.451 42.0962 112.06 42.4746 112.645 42.3893C112.784 42.3726 112.917 42.3269 113.037 42.2554C113.156 42.1838 113.26 42.0879 113.34 41.9738C113.42 41.8598 113.475 41.7302 113.502 41.5934C113.529 41.4566 113.527 41.3157 113.496 41.1798C113.284 40.3679 111.864 39.845 111.117 39.8038C111.052 39.8038 110.035 39.8588 110.04 39.8726V39.8891C109.818 39.8051 109.577 39.7171 109.313 39.6276C108.821 39.4639 108.267 39.2836 107.649 39.1281C106.985 38.9511 106.312 38.8133 105.632 38.7153C104.871 38.6043 104.102 38.561 103.334 38.586H103.306C103.537 38.5034 104.177 38.2502 104.224 38.2255C104.885 37.8718 105.954 36.8027 105.804 35.977C105.775 35.8406 105.718 35.7117 105.637 35.5988C105.555 35.4859 105.45 35.3914 105.33 35.3216C105.209 35.2517 105.075 35.2081 104.937 35.1934C104.798 35.1788 104.658 35.1936 104.525 35.2367C103.957 35.4005 103.555 36.0087 103.354 36.5316C103.127 37.1205 103.217 38.4855 103.217 38.5956C102.435 38.64 101.656 38.7366 100.887 38.8846C100.439 38.9685 99.99 39.0676 99.5414 39.1722C99.7396 39.0937 99.9157 39.0222 99.9391 39.0098C100.6 38.6562 101.669 37.587 101.52 36.7614C101.492 36.6249 101.435 36.496 101.353 36.3831C101.271 36.2701 101.167 36.1755 101.046 36.1056C100.926 36.0356 100.792 35.9918 100.653 35.977C100.515 35.9622 100.374 35.9768 100.242 36.0197C99.6721 36.1834 99.2703 36.793 99.0694 37.3159C98.8685 37.8388 98.9126 39.0112 98.9318 39.3194L98.4158 39.4432C97.5902 39.6469 96.7729 39.856 95.9624 40.0322C95.6762 40.0955 95.3927 40.1478 95.1092 40.2001C95.284 40.1299 95.4312 40.0707 95.4532 40.0625C96.1137 39.7102 97.1829 38.6396 97.0343 37.814C97.0058 37.6776 96.9488 37.5487 96.8672 37.4358C96.7855 37.3229 96.681 37.2284 96.5604 37.1585C96.4398 37.0887 96.3058 37.045 96.1672 37.0304C96.0286 37.0158 95.8885 37.0306 95.756 37.0737C95.1863 37.2375 94.7859 37.8471 94.585 38.3686C94.3841 38.8901 94.4199 39.9482 94.4405 40.3129C94.1488 40.3583 93.8557 40.4037 93.5708 40.434C93.3755 40.4505 93.1883 40.4808 92.9915 40.4863L92.4136 40.5152C92.0448 40.5152 91.6637 40.5262 91.3045 40.522C91.0541 40.522 90.816 40.5152 90.5766 40.5097C90.8615 40.4505 91.4174 40.3225 91.4614 40.306C92.0746 40.0646 92.6157 39.67 93.0328 39.1598C93.1024 39.1357 93.1697 39.1053 93.2337 39.069C93.3568 39.0037 93.4649 38.9132 93.5507 38.8034C93.6366 38.6936 93.6984 38.567 93.7322 38.4318C93.7659 38.2966 93.7708 38.1558 93.7466 38.0185C93.7224 37.8813 93.6695 37.7506 93.5915 37.6351C93.103 36.954 91.5894 36.976 90.8766 37.2058C90.8353 37.2196 90.395 37.4164 90.1184 37.5457C90.2698 37.4453 90.417 37.3489 90.5697 37.243C90.8752 37.0366 91.1738 36.8219 91.4958 36.5921L91.9554 36.2385C92.1109 36.1243 92.2609 35.9839 92.4164 35.8546C92.77 35.5505 93.1126 35.223 93.4511 34.8914C93.6328 35.1583 94.2905 36.0968 94.768 36.3926C95.2455 36.6884 95.9335 36.921 96.4839 36.7132C97.0343 36.5054 97.3288 35.8876 97.0549 35.351C96.6752 34.6024 95.1767 34.396 94.4405 34.513C94.3951 34.5212 93.8736 34.6657 93.5887 34.7496C93.791 34.546 93.9933 34.3437 94.1901 34.1304C94.7611 33.5167 95.3184 32.8769 95.8784 32.2411C96.0491 32.0471 96.2224 31.8545 96.3944 31.6618C96.4591 31.7582 97.2201 32.8906 97.7512 33.2222C98.2273 33.5167 98.9153 33.7589 99.4671 33.5456C99.5987 33.4999 99.7193 33.427 99.8209 33.3316C99.9224 33.2362 100.003 33.1204 100.057 32.9919C100.111 32.8634 100.137 32.725 100.134 32.5857C100.13 32.4463 100.098 32.3093 100.038 32.1833C99.6584 31.4362 98.1599 31.2284 97.4237 31.3467C97.3687 31.3564 96.6187 31.5641 96.4302 31.6219C96.81 31.1967 97.1939 30.7771 97.5875 30.3835C98.1164 29.8429 98.6799 29.3373 99.2745 28.8699C99.3047 28.9153 100.09 30.1 100.638 30.4399C101.114 30.7344 101.801 30.978 102.354 30.7647C102.486 30.7188 102.606 30.6457 102.708 30.5502C102.809 30.4547 102.89 30.3388 102.944 30.2102C102.997 30.0816 103.024 29.943 103.02 29.8036C103.017 29.6642 102.985 29.527 102.925 29.401C102.545 28.6538 101.047 28.4474 100.311 28.5644C100.253 28.574 99.4465 28.7997 99.3034 28.8506C99.3378 28.8231 99.3708 28.7915 99.4052 28.7653C100.015 28.3133 100.664 27.916 101.344 27.5778C101.717 27.3879 102.084 27.2255 102.445 27.0755C102.569 27.3122 103.145 28.3828 103.605 28.7433C104.064 29.1038 104.706 29.4052 105.274 29.2538C105.41 29.2228 105.538 29.1635 105.649 29.0798C105.761 28.9961 105.853 28.8898 105.921 28.7679C105.989 28.6461 106.03 28.5113 106.043 28.3724C106.055 28.2335 106.038 28.0936 105.992 27.9617C105.696 27.1774 104.23 26.8072 103.481 26.843C103.441 26.843 103.03 26.9104 102.731 26.9627C102.895 26.898 103.063 26.8251 103.221 26.7687C103.814 26.5458 104.371 26.3779 104.872 26.232C105.147 26.1522 105.412 26.0862 105.651 26.0256C105.893 26.1935 106.877 26.8595 107.44 26.9641C108.003 27.0687 108.718 27.0467 109.157 26.649C109.596 26.2513 109.648 25.5757 109.198 25.1725C108.574 24.6111 107.101 24.9592 106.455 25.3349C106.398 25.3679 105.582 25.9775 105.595 25.9871L105.61 25.9967C105.376 26.0504 105.127 26.1096 104.857 26.1798C104.357 26.3174 103.795 26.4701 103.193 26.682C102.544 26.9023 101.907 27.1605 101.288 27.4553C100.592 27.7823 99.9264 28.1705 99.2992 28.6153L99.2772 28.6332C99.4244 28.4364 99.818 27.8723 99.8428 27.8255C100.199 27.1664 100.5 25.6844 99.9212 25.0734C99.822 24.9755 99.7033 24.8996 99.5729 24.8505C99.4424 24.8015 99.3031 24.7804 99.164 24.7887C99.0249 24.797 98.8891 24.8345 98.7654 24.8987C98.6417 24.963 98.5329 25.0525 98.4461 25.1615C98.0622 25.6115 98.0636 26.3408 98.1846 26.887C98.3222 27.5035 99.1479 28.5974 99.207 28.6841C98.5803 29.1527 97.9855 29.6625 97.4265 30.2101C97.099 30.528 96.7797 30.8569 96.4632 31.1912C96.5843 31.0179 96.6917 30.861 96.7054 30.8376C97.0618 30.1785 97.3618 28.6951 96.7825 28.0856C96.6833 27.9876 96.5646 27.9117 96.4342 27.8626C96.3037 27.8136 96.1644 27.7925 96.0253 27.8008C95.8862 27.8091 95.7504 27.8466 95.6267 27.9108C95.503 27.9751 95.3942 28.0646 95.3074 28.1736C94.9235 28.6236 94.9248 29.3529 95.0459 29.8991C95.167 30.4454 95.8495 31.4004 96.0325 31.6494L95.6583 32.0444C95.0845 32.6691 94.5134 33.2938 93.9355 33.8896C93.7332 34.1001 93.5227 34.3024 93.3163 34.5006C93.425 34.3451 93.5144 34.2144 93.5254 34.1923C93.8818 33.5332 94.1832 32.0512 93.6039 31.4403C93.5047 31.3424 93.386 31.2664 93.2556 31.2174C93.1251 31.1683 92.9858 31.1473 92.8467 31.1556C92.7076 31.1639 92.5718 31.2014 92.4481 31.2656C92.3244 31.3298 92.2156 31.4193 92.1288 31.5284C91.7449 31.9783 91.7462 32.709 91.8673 33.2553C91.9884 33.8015 92.6049 34.6629 92.8209 34.9588C92.6021 35.1583 92.3847 35.3578 92.1632 35.5408C92.0091 35.6619 91.8701 35.7899 91.7091 35.9027L91.2412 36.2454C90.9371 36.4531 90.6234 36.6692 90.3207 36.8632C90.1115 37.0008 89.9079 37.1274 89.707 37.2554C89.912 37.049 90.3055 36.6348 90.3344 36.5963C90.7858 35.9991 91.3087 34.5804 90.8271 33.8924C90.7439 33.7805 90.6382 33.6875 90.5168 33.6191C90.3954 33.5508 90.2609 33.5088 90.1222 33.4958C89.9835 33.4829 89.8436 33.4992 89.7116 33.5438C89.5796 33.5884 89.4585 33.6603 89.3561 33.7548C88.9075 34.1414 88.8057 34.8625 88.8346 35.4211C88.8759 36.0362 89.4909 37.1976 89.568 37.3476C89.2295 37.5581 88.8992 37.7604 88.5855 37.9461Z" fill="#BC9434"/>
<path d="M106.942 38.9506C106.942 38.9658 107.952 38.8543 108.015 38.8405C108.744 38.674 110.058 37.9241 110.133 37.0889C110.186 36.4875 109.674 36.0307 109.095 36.0376C108.516 36.0445 107.956 36.5261 107.624 36.9774C107.237 37.5058 106.942 38.9492 106.942 38.9506Z" fill="#BC9434"/>
<path d="M49.5047 13.3473L47.1624 15.1813L50.005 18.8119L52.3474 16.9779L49.5047 13.3473Z" fill="#BC9434" stroke="#BC9434" stroke-width="0.561983" stroke-linejoin="round"/>
<path d="M49.3173 11.4182L45.3346 14.5365L47.3519 17.1129L51.3345 13.9946L49.3173 11.4182Z" fill="#BC9434" stroke="#BC9434" stroke-width="0.561983" stroke-linejoin="round"/>
<path d="M46.1944 13.9855L47.6736 15.8748" stroke="#BC9434" stroke-width="0.561983" stroke-linejoin="round"/>
<path d="M47.5428 12.9301L49.0221 14.818" stroke="#BC9434" stroke-width="0.561983" stroke-linejoin="round"/>
<path d="M47.1755 13.9428L48.6547 15.8307" stroke="#BC9434" stroke-width="0.561983" stroke-linejoin="round"/>
<path d="M79.8939 16.9805L82.2363 18.8145L85.079 15.1839L82.7366 13.3499L79.8939 16.9805Z" fill="#BC9434" stroke="#BC9434" stroke-width="0.561983" stroke-linejoin="round"/>
<path d="M80.909 13.9939L84.8917 17.1123L86.909 14.5359L82.9263 11.4175L80.909 13.9939Z" fill="#BC9434" stroke="#BC9434" stroke-width="0.561983" stroke-linejoin="round"/>
<path d="M86.0508 13.9855L84.5716 15.8748" stroke="#BC9434" stroke-width="0.561983" stroke-linejoin="round"/>
<path d="M84.7024 12.9301L83.2231 14.818" stroke="#BC9434" stroke-width="0.561983" stroke-linejoin="round"/>
<path d="M85.0697 13.9428L83.5905 15.8307" stroke="#BC9434" stroke-width="0.561983" stroke-linejoin="round"/>
<path d="M68.3552 6.96912H63.5309V11.8003H68.3552V6.96912Z" fill="#BC9434" stroke="#BC9434" stroke-width="0.561983" stroke-linejoin="round"/>
<path d="M69.434 4.19778H62.4521V9.029H69.434V4.19778Z" fill="#BC9434" stroke="#BC9434" stroke-width="0.561983" stroke-linejoin="round"/>
<path d="M63.0795 4.1813V8.20755" stroke="#BC9434" stroke-width="0.561983" stroke-linejoin="round"/>
<path d="M63.6547 8.3878V6.23019" stroke="#BC9434" stroke-width="0.561983" stroke-linejoin="round"/>
<path d="M64.2657 4.28998V7.34475" stroke="#BC9434" stroke-width="0.561983" stroke-linejoin="round"/>
<path d="M64.8766 5.7637V8.56804" stroke="#BC9434" stroke-width="0.561983" stroke-linejoin="round"/>
<path d="M65.8123 4.32581V7.48928" stroke="#BC9434" stroke-width="0.561983" stroke-linejoin="round"/>
<path d="M83.7878 54.0373C93.6437 44.1814 93.6437 28.2018 83.7878 18.3459C73.9319 8.48998 57.9523 8.48998 48.0964 18.3459C38.2405 28.2018 38.2405 44.1814 48.0964 54.0373C57.9523 63.8932 73.9319 63.8932 83.7878 54.0373Z" fill="#BC9434" stroke="#BC9434" stroke-width="0.561983" stroke-linejoin="round"/>
<path d="M81.6959 51.9453C90.3964 43.2448 90.3964 29.1384 81.6959 20.4378C72.9953 11.7373 58.8889 11.7373 50.1884 20.4378C41.4878 29.1384 41.4878 43.2448 50.1884 51.9454C58.8889 60.6459 72.9953 60.6459 81.6959 51.9453Z" fill="white" stroke="#BC9434" stroke-width="0.561983" stroke-linejoin="round"/>
<path d="M80.4611 50.7106C88.4798 42.692 88.4798 29.6912 80.4611 21.6726C72.4425 13.6539 59.4417 13.6539 51.4231 21.6726C43.4044 29.6912 43.4044 42.692 51.4231 50.7106C59.4417 58.7293 72.4425 58.7293 80.4611 50.7106Z" fill="white" stroke="#BC9434" stroke-width="0.561983" stroke-linejoin="round"/>
<path d="M65.9431 15.6587V18.4424" stroke="#BC9434" stroke-width="0.561983" stroke-linejoin="round"/>
<path d="M65.9431 53.9204V56.7041" stroke="#BC9434" stroke-width="0.561983" stroke-linejoin="round"/>
<path d="M86.465 36.1821H83.6813" stroke="#BC9434" stroke-width="0.561983" stroke-linejoin="round"/>
<path d="M48.2034 36.1821H45.4197" stroke="#BC9434" stroke-width="0.561983" stroke-linejoin="round"/>
<path d="M80.4546 21.6705L78.4855 23.6382" stroke="#BC9434" stroke-width="0.561983" stroke-linejoin="round"/>
<path d="M53.3992 48.7245L51.4315 50.6936" stroke="#BC9434" stroke-width="0.561983" stroke-linejoin="round"/>
<path d="M51.4315 21.6705L53.3992 23.6382" stroke="#BC9434" stroke-width="0.561983" stroke-linejoin="round"/>
<path d="M78.4855 48.7245L80.4546 50.6936" stroke="#BC9434" stroke-width="0.561983" stroke-linejoin="round"/>
<path d="M71.0082 34.2267L71.3288 35.45L50.3444 40.511L50.2481 40.1436L71.0082 34.2267Z" fill="#BC9434" stroke="#BC9434" stroke-width="0.561983" stroke-linejoin="round"/>
<path d="M66.748 36.1917C66.748 36.0325 66.7008 35.8769 66.6123 35.7445C66.5239 35.6121 66.3982 35.509 66.2511 35.448C66.104 35.3871 65.9421 35.3712 65.786 35.4022C65.6298 35.4333 65.4864 35.5099 65.3738 35.6225C65.2613 35.7351 65.1846 35.8785 65.1535 36.0347C65.1225 36.1908 65.1384 36.3527 65.1993 36.4998C65.2603 36.6469 65.3634 36.7726 65.4958 36.861C65.6282 36.9495 65.7838 36.9967 65.943 36.9967C66.0487 36.9967 66.1534 36.9759 66.2511 36.9354C66.3487 36.895 66.4375 36.8357 66.5122 36.7609C66.587 36.6862 66.6463 36.5974 66.6867 36.4998C66.7272 36.4021 66.748 36.2974 66.748 36.1917Z" fill="white" stroke="#BC9434" stroke-width="0.561983" stroke-linejoin="round"/>
<path d="M58.2112 51.449L56.9521 50.6234C56.9521 50.6234 56.1719 51.3788 56.1265 51.449C56.0811 51.5192 53.9372 51.7751 53.512 51.7751C53.0868 51.7751 52.7828 51.6747 52.7318 51.877C52.6809 52.0792 53.3359 52.5306 54.2922 52.7824C54.6693 52.8815 55.2197 53.0796 55.7618 53.2736L55.6765 53.4869C55.6765 53.4869 57.1103 54.0153 57.3374 54.0373C57.4144 54.047 57.4887 53.93 57.5534 53.7731C57.7777 53.5709 58.2112 51.449 58.2112 51.449Z" fill="#BC9434" stroke="#BC9434" stroke-width="0.561983" stroke-linejoin="round"/>
<path d="M79.5312 40.6803L79.834 42.1499C79.834 42.1499 80.9197 42.1636 81.0091 42.1499C81.0985 42.1361 82.7979 43.4612 83.0965 43.7626C83.3951 44.0639 83.5424 44.3474 83.7212 44.24C83.9001 44.1327 83.7529 43.3511 83.252 42.498C83.0539 42.1623 82.8021 41.6339 82.5557 41.1137L82.7663 41.0229C82.7663 41.0229 82.1209 39.6373 81.9778 39.4597C81.9283 39.3992 81.7934 39.4295 81.6379 39.4941C81.3297 39.4845 79.5312 40.6803 79.5312 40.6803Z" fill="#BC9434" stroke="#BC9434" stroke-width="0.561983" stroke-linejoin="round"/>
<path d="M64.8353 36.749C64.8353 36.749 64.4321 37.0008 64.4831 37.1522C64.534 37.3035 64.8601 37.554 64.8601 37.554C64.8601 37.554 59.5404 42.1403 59.4399 42.4925C59.3395 42.8448 56.1237 50.6179 56.1237 50.6179L58.5895 51.8563L61.881 44.0323L67.4773 40.4546C67.4773 40.4546 71.5228 46.2092 71.926 46.1596C72.3291 46.1101 80.6059 42.2545 80.6059 42.2545L79.7982 40.3611L72.8052 42.7553L70.6215 37.8567C70.6215 37.8567 71.1499 36.9499 70.8238 36.0679C70.4976 35.1858 69.5399 33.8277 69.5399 33.8277L64.8353 36.749Z" fill="#BC9434" stroke="#BC9434" stroke-width="0.561983" stroke-linejoin="round"/>
<path d="M67.4759 40.4477C67.4759 40.4477 70.1564 38.8433 70.3834 38.6162" stroke="#999999" stroke-width="0.561983" stroke-linejoin="round"/>
<path d="M66.0132 36.7242C66.3225 36.4484 66.6518 36.1959 66.9984 35.9688C67.5268 35.6674 68.735 35.717 68.735 35.717" stroke="#999999" stroke-width="0.561983" stroke-linejoin="round"/>
<path d="M65.1615 37.4783C65.1615 37.4783 65.3404 37.3132 65.5935 37.0889" stroke="#999999" stroke-width="0.561983" stroke-linejoin="round"/>
<path d="M69.3129 35.4404C69.3129 35.4404 68.307 35.3138 67.5241 35.5161" stroke="#999999" stroke-width="0.561983" stroke-linejoin="round"/>
<path d="M68.1048 40.1959C68.1048 40.1959 70.1936 40.5743 70.8733 40.5234" stroke="#999999" stroke-width="0.561983" stroke-linejoin="round"/>
<path d="M70.6449 41.8127C70.8073 41.8609 70.9683 41.9008 71.1251 41.9325" stroke="#999999" stroke-width="0.561983" stroke-linejoin="round"/>
<path d="M68.08 40.65C68.7567 41.0494 69.4666 41.3896 70.2018 41.6669" stroke="#999999" stroke-width="0.561983" stroke-linejoin="round"/>
<path d="M64.4308 36.2963L64.834 36.749L69.54 33.8291L69.2372 33.5277L64.4308 36.2963Z" fill="#BC9434" stroke="#BC9434" stroke-width="0.561983" stroke-linejoin="round"/>
<path d="M71.2765 30.4675L71.7086 31.0495L72.7653 30.6835L72.5493 30.1647L71.2765 30.4675Z" fill="white" stroke="#BC9434" stroke-width="0.561983" stroke-linejoin="round"/>
<path d="M60.1569 26.2238C60.1569 26.2238 58.0639 26.2541 56.992 26.2238C55.9201 26.1935 52.9245 25.5963 52.6851 26.0449C52.4456 26.4935 52.9534 27.7196 54.4202 28.1984C55.8871 28.6773 59.0863 29.1258 59.0863 29.1258C59.0863 29.1258 60.4018 30.7771 61.1503 31.7582C61.8989 32.7393 63.2735 35.0194 63.3933 35.2285C63.513 35.4377 64.051 36.7242 64.7693 36.4545C65.4876 36.1848 69.4051 33.763 69.4051 33.5828C69.4051 33.4025 69.4051 33.17 69.2868 33.0145C69.1684 32.859 67.7608 31.1307 67.5213 30.6752C67.2819 30.2198 66.4205 28.014 66.4205 28.014L68.3043 27.5654C68.3043 27.5654 70.5183 30.0175 70.9366 30.4069C71.3549 30.7963 71.7141 30.6464 71.7141 30.6464C71.7141 30.6464 72.7021 30.4661 72.731 30.1675C72.7598 29.8689 69.4409 24.7831 69.112 24.6042C68.7831 24.4254 66.5691 25.1725 65.672 25.3211C64.7748 25.4698 63.6974 25.5303 62.4411 25.8303C61.6891 26.0114 60.9261 26.1429 60.1569 26.2238Z" fill="white" stroke="#BC9434" stroke-width="0.561983" stroke-linejoin="round"/>
<path d="M66.4054 28.0195L63.4139 28.8561" stroke="#BC9434" stroke-width="0.561983" stroke-linejoin="round"/>
<path d="M65.0582 28.4075L64.0125 29.2455" stroke="#BC9434" stroke-width="0.561983" stroke-linejoin="round"/>
<path d="M56.5351 27.9562L56.0852 27.7498" stroke="#BC9434" stroke-width="0.561983" stroke-linejoin="round"/>
<path d="M56.9824 27.6906L59.0767 29.1258L56.8613 28.1076" stroke="#BC9434" stroke-width="0.561983" stroke-linejoin="round"/>
<path d="M64.1157 32.3086C65.1683 32.5274 67.0053 32.8493 68.5547 32.8149" stroke="#BC9434" stroke-width="0.561983" stroke-linejoin="round"/>
<path d="M63.2529 32.1132C63.2529 32.1132 63.4332 32.1586 63.74 32.2274" stroke="#BC9434" stroke-width="0.561983" stroke-linejoin="round"/>
<path d="M66.5017 32.3801C66.5017 32.3801 67.7484 32.6388 68.5809 32.6388" stroke="#BC9434" stroke-width="0.561983" stroke-linejoin="round"/>
<path d="M60.1183 27.8035L60.571 29.3185L61.16 27.7581L60.1183 27.8035Z" fill="#BC9434" stroke="#BC9434" stroke-width="0.561983" stroke-linejoin="round"/>
<path d="M60.2545 26.6614L59.6573 27.3191L60.6866 28.1434L61.2631 27.1141L60.2545 26.6614Z" fill="white" stroke="#BC9434" stroke-width="0.561983" stroke-linejoin="round"/>
<path d="M59.6573 27.3191L59.9463 28.5342L60.3577 27.875L59.6573 27.3191Z" fill="white" stroke="#BC9434" stroke-width="0.561983" stroke-linejoin="round"/>
<path d="M57.7433 22.009C57.7433 22.009 57.3305 23.0177 57.3525 23.2846C57.3745 23.5516 57.5795 23.7167 57.5589 24.0263C57.5383 24.3359 56.8998 24.9111 57.0443 25.0555C57.1888 25.2 57.7226 25.4257 57.7226 25.4257C57.7226 25.4257 58.2992 26.6201 58.5056 26.6641C58.712 26.7082 59.8225 26.1495 59.8225 26.1495L60.6866 28.1447L62.3956 25.6142L61.8191 24.4817C61.8191 24.4817 62.3131 23.2062 61.8397 22.1563C61.3664 21.1064 59.8637 21.0444 59.1427 21.1683C58.4217 21.2921 57.8878 21.5976 57.7433 22.009Z" fill="white" stroke="#BC9434" stroke-width="0.561983" stroke-miterlimit="10"/>
<path d="M59.1235 21.7847C58.9561 21.7492 58.783 21.7511 58.6164 21.7904C58.4499 21.8296 58.2941 21.9052 58.1603 22.0118C57.647 22.3819 57.2135 22.7934 57.0085 22.4246C56.8035 22.0558 57.4406 21.4366 57.4406 21.4366C57.4406 21.4366 56.926 21.2921 57.1324 20.6963C57.3388 20.1005 58.0956 19.9753 58.0956 20.1817C58.0956 20.3881 58.0337 20.5518 58.6102 20.2642C59.1868 19.9766 59.495 19.8927 59.6188 20.223C59.7427 20.5532 60.483 20.3606 61.3265 20.8394C62.17 21.3183 62.3764 21.6224 62.1906 22.6929C62.0049 23.7635 61.965 24.2767 61.8205 24.4817C61.676 24.6868 61.1614 24.7487 60.9357 24.6675C60.71 24.5863 60.8325 24.3579 60.8325 24.3579C60.8325 24.3579 61.4297 23.7607 61.1614 23.2874C60.893 22.814 60.5036 23.0204 60.3798 23.2874C60.2559 23.5543 60.3179 23.7813 60.1321 23.7813C59.9463 23.7813 59.7826 23.6437 59.7413 23.3493C59.7 23.0548 59.5569 22.7989 59.4331 22.7521C59.3092 22.7053 59.001 22.9791 59.0203 22.5058C59.0274 22.2327 59.1291 21.9706 59.3079 21.7641L59.1235 21.7847Z" fill="#BC9434" stroke="#BC9434" stroke-width="0.561983" stroke-miterlimit="10"/>
<path d="M57.7447 23.8199C57.7394 23.6888 57.7824 23.5603 57.8656 23.4588C57.9488 23.3573 58.0664 23.2899 58.196 23.2695" stroke="#BC9434" stroke-width="0.561983" stroke-miterlimit="10"/>
<path d="M58.2304 24.0235C58.2703 24.135 58.2579 24.2423 58.2043 24.2616C58.1506 24.2808 58.0763 24.2038 58.0364 24.0909C57.9965 23.9781 58.0089 23.8722 58.0625 23.8529C58.1162 23.8336 58.1919 23.9107 58.2304 24.0235Z" fill="#BC9434"/>
<path d="M62.3544 24.9524L60.5641 27.2366L60.893 28.4516L62.9928 25.5289L62.3544 24.9524Z" fill="white" stroke="#BC9434" stroke-width="0.561983" stroke-linejoin="round"/>
<path d="M60.5696 29.3185C60.6008 29.4218 60.6593 29.5147 60.739 29.5874C60.8187 29.66 60.9166 29.7098 61.0224 29.7313C61.3842 29.7987 62.0172 29.5276 62.3337 28.713C62.6502 27.8984 63.3065 25.6596 63.6905 25.1161C64.0744 24.5726 65.3417 24.5519 65.9981 24.596C66.6544 24.64 67.1057 24.0084 67.7167 23.7139C68.0746 23.54 68.4554 23.4181 68.8478 23.352L69.6184 21.7848L68.0125 21.7393C68.0125 21.7393 66.4287 22.4865 66.0214 22.9613C65.6141 23.436 65.321 23.3741 64.461 23.5488C63.601 23.7236 63.1277 24.0923 62.7878 25.1326C62.4479 26.1729 61.9966 28.797 61.4985 29.1589C61.3711 29.2644 61.2183 29.3347 61.0554 29.3627C60.8924 29.3907 60.7249 29.3754 60.5696 29.3185Z" fill="#BC9434" stroke="#BC9434" stroke-width="0.561983" stroke-linejoin="round"/>
<path d="M55.0091 27.6136C55.1949 27.8076 55.2224 28.0828 55.0697 28.2314C54.917 28.38 54.6404 28.3429 54.4546 28.1502C54.2688 27.9576 54.2413 27.681 54.3941 27.5324C54.5468 27.3838 54.822 27.4264 55.0091 27.6136Z" fill="white" stroke="#BC9434" stroke-width="0.561983" stroke-linejoin="round"/>
<path d="M54.8619 27.9892L54.5633 27.6727C54.5633 27.6727 53.9496 26.0738 53.1309 25.6458C52.3121 25.2179 51.3269 25.8688 51.1219 26.4825C50.9168 27.0962 51.6434 28.1199 52.4057 28.4364C53.0179 28.6657 53.6462 28.8497 54.2853 28.9868C54.2853 28.9868 54.639 28.1571 54.8619 27.9892Z" fill="white" stroke="#BC9434" stroke-width="0.561983" stroke-linejoin="round"/>
<path d="M53.801 28.8451L53.8327 28.8864C54.101 28.9538 54.2854 28.9937 54.2854 28.9937C54.2854 28.9937 54.639 28.1571 54.8619 27.9892L54.5633 27.6728C54.5633 27.6728 53.7074 27.8214 53.801 28.8451Z" fill="#BC9434" stroke="#BC9434" stroke-width="0.561983" stroke-linejoin="round"/>
<path d="M56.7402 30.4633C56.8486 30.6191 56.9736 30.7626 57.1131 30.8913C57.2617 31.0041 57.3167 31.1334 57.131 31.1156C56.9061 31.1102 56.6925 31.0162 56.5365 30.8541C56.3494 30.6505 56.22 30.4826 56.22 30.4826L56.7402 30.4633Z" fill="white" stroke="#BC9434" stroke-width="0.561983" stroke-linejoin="round"/>
<path d="M56.8338 29.9033C56.8338 29.9033 57.0938 30.3312 57.0016 30.4427C56.9094 30.5541 56.0522 30.5913 55.9215 30.5541C55.7907 30.517 55.8843 30.3491 55.8843 30.3491L56.8338 29.9033Z" fill="white" stroke="#BC9434" stroke-width="0.561983" stroke-linejoin="round"/>
<path d="M56.8145 29.4038C56.8145 29.4038 57.0195 29.7203 56.9824 29.8496C56.9452 29.979 56.0714 30.3711 55.8816 30.3519C55.6917 30.3326 55.7151 30.1854 55.7151 30.1854L56.8145 29.4038Z" fill="white" stroke="#BC9434" stroke-width="0.561983" stroke-linejoin="round"/>
<path d="M56.4622 29.0309C56.4622 29.0309 56.7966 28.9937 56.8338 29.2359C56.8709 29.4781 56.6659 29.5524 56.5365 29.6639C56.4072 29.7753 55.8485 30.1854 55.7178 30.1854C55.5871 30.1854 55.3449 29.8125 55.3449 29.8125L56.4622 29.0309Z" fill="white" stroke="#BC9434" stroke-width="0.561983" stroke-linejoin="round"/>
<path d="M54.8619 27.9893C54.8619 27.9893 55.7728 28.325 56.2008 28.4365C56.6287 28.5479 56.648 28.9016 56.4622 29.0309C56.2765 29.1603 55.6985 29.8689 55.5307 29.9061C55.3628 29.9432 55.1179 29.7574 55.1179 29.7574C55.1179 29.7574 54.5963 29.496 54.522 29.2924C54.4767 29.1691 54.3921 29.0642 54.2812 28.9938C54.2812 28.9938 54.2289 28.2314 54.8619 27.9893Z" fill="white" stroke="#BC9434" stroke-width="0.561983" stroke-linejoin="round"/>
<path d="M55.122 29.7574C55.122 29.7574 54.9734 29.4038 55.1041 29.3102C55.2348 29.2166 55.4385 29.4217 55.4385 29.4217C55.4681 29.3139 55.5186 29.2129 55.5871 29.1245" stroke="#BC9434" stroke-width="0.561983" stroke-linejoin="round"/>
<path d="M71.7154 31.0495C71.7647 31.3163 71.7955 31.5862 71.8076 31.8572C71.7925 32.0458 71.4636 32.8301 71.4471 32.8769C71.4306 32.9237 71.5572 33.1122 71.604 33.1741C71.6507 33.236 71.8709 33.2057 72.0429 33.3461C72.2149 33.4864 72.4186 33.8332 72.6704 33.7589C72.9222 33.6846 73.0832 33.3461 73.0832 33.3461C73.0832 33.3461 73.6625 33.0021 73.6776 32.8301C73.6856 32.6181 73.6591 32.4062 73.5992 32.2026C73.5524 32.065 72.7736 30.689 72.7736 30.689L71.7154 31.0495Z" fill="white" stroke="#BC9434" stroke-width="0.561983" stroke-linejoin="round"/>
<path d="M71.8792 32.7351C71.8792 32.7351 72.1764 32.7819 72.303 33.2374" stroke="#BC9434" stroke-width="0.561983" stroke-linejoin="round"/>
<path d="M72.036 32.9704L71.3618 33.3158L71.9893 34.4909" stroke="#BC9434" stroke-width="1.68595" stroke-linecap="round" stroke-linejoin="round"/>
<path d="M73.6818 32.4063L73.8689 32.3278L74.4964 33.5814" stroke="#BC9434" stroke-width="1.68595" stroke-linejoin="round"/>
<path d="M76.8183 32.3235L70.0743 35.3332C69.8112 35.4505 69.6932 35.7589 69.8106 36.0219L71.6202 40.0769C71.7376 40.3399 72.0459 40.458 72.309 40.3406L79.053 37.3309C79.316 37.2135 79.4341 36.9051 79.3167 36.6421L77.5071 32.5872C77.3897 32.3242 77.0813 32.2061 76.8183 32.3235Z" fill="#BC9434" stroke="#BC9434" stroke-width="0.561983" stroke-linejoin="round"/>
</svg>
